<?xml version="1.0" standalone="no"?><!DOCTYPE svg PUBLIC "-//W3C//DTD SVG 1.1//EN" "http://www.w3.org/Graphics/SVG/1.1/DTD/svg11.dtd"><svg t="1612927717382" class="icon" viewBox="0 0 1024 1024" version="1.1" xmlns="http://www.w3.org/2000/svg" p-id="7817" width="128" height="128" xmlns:xlink="http://www.w3.org/1999/xlink"><defs><style type="text/css"></style></defs><path d="M512 512m-512 0a512 512 0 1 0 1024 0 512 512 0 1 0-1024 0Z" fill="#EACA44" p-id="7818"></path><path d="M512 64C264.576 64 64 264.576 64 512s200.576 448 448 448 448-200.576 448-448S759.424 64 512 64z m0 832C299.936 896 128 724.064 128 512S299.936 128 512 128s384 171.936 384 384-171.936 384-384 384z" fill="" p-id="7819"></path><path d="M640 640h-200c40.512-28.992 40-96 40-96h64a32 32 0 1 0 0-64h-64v-64a64 64 0 0 1 128 0 32 32 0 1 0 64 0 128 128 0 0 0-256 0v64h-32a32 32 0 1 0 0 64h32s0 64-48 96c-12.064 8.032-16 22.56-16 32a32 32 0 0 0 32 32h256a32 32 0 1 0 0-64z" fill="" p-id="7820"></path></svg>